<svg width="64" height="64" viewBox="0 0 64 64" fill="none" xmlns="http://www.w3.org/2000/svg">
<g clip-path="url(#clip0_1543_412)">
<path d="M26.7241 17.3542C28.0522 14.9323 29.4064 12.8542 30.7814 11.1042C30.8335 11.0365 30.8856 10.974 30.9376 10.9063C32.5991 8.03126 33.7658 5.17189 32.4168 4.23439C31.5418 3.63022 30.271 3.60939 28.9429 3.90105C26.9585 4.33335 24.9481 5.4271 23.7397 6.41147C22.1564 7.69793 20.7449 9.33855 19.5366 11.0886C18.0991 13.1771 16.9689 15.4011 16.2137 17.3594C15.4429 19.3646 14.8908 21.5052 14.5731 23.7969C14.2658 26.0313 14.1824 28.4063 14.3439 30.9271C15.8179 34.7917 17.797 38.2188 20.3022 41.1823C20.4897 41.3958 20.6772 41.6042 20.8699 41.8125C23.7554 44.9167 27.2814 47.3958 31.396 49.2917C31.4429 49.3125 31.4897 49.3385 31.5366 49.3698C32.0314 49.3333 32.5366 49.2865 33.047 49.224C33.9324 49.1146 34.7918 48.974 35.6304 48.8021C38.3908 48.2344 40.7241 47.4011 42.9272 46.2865C45.1564 45.1615 47.271 43.7448 49.5783 42.0417C50.7033 41.2083 51.8231 40.3125 52.9324 39.349C54.0366 38.3906 55.0887 37.3958 56.0835 36.3594C58.2501 33.9115 59.7345 31.5469 60.5679 29.2604C61.3751 27.0417 61.5626 24.8958 61.146 22.8125C60.7606 20.8698 59.5001 18.5886 57.9064 16.3958C55.8699 13.5938 53.3126 10.9896 51.3126 9.41668C50.4533 8.7396 49.6043 8.17189 48.771 7.71355C46.0731 6.2396 43.4012 5.84897 40.8022 6.6146C38.1512 7.39585 35.5106 9.3698 32.9324 12.6198C31.8595 14.4896 30.6564 16.2396 29.7397 17.5729C29.4897 17.9375 29.271 18.2552 28.9324 18.7708C28.5314 19.375 27.7137 19.5417 27.1095 19.1406C26.5262 18.75 26.3543 17.9531 26.7241 17.3542ZM10.1564 35.724C10.0679 39.0625 10.5887 40.4427 13.0731 43.6667C13.9481 44.8021 14.9012 45.9375 15.9376 47.0729C17.8804 48.5625 18.1876 50.0469 16.6668 51.5365L15.9376 52.349C14.6251 53.1615 13.172 53.3125 11.2293 51.1302L8.3439 47.4688C7.04702 45.8229 5.36473 44.2448 5.23973 42.0365C5.2189 41.625 5.23452 41.2031 5.2866 40.7656L4.02098 42.0729C3.60952 42.5938 3.27619 43.1302 3.04181 43.6875C2.80744 44.224 2.66681 44.7813 2.63556 45.3594C2.52619 47.2917 4.43244 50.2604 6.94285 53.0573C9.99494 56.4583 13.8439 59.474 16.1356 60.1302C19.7606 61.1771 23.7606 56.5469 27.1147 52.6719C27.5731 52.1406 28.021 51.625 28.4585 51.1302C24.7189 49.0677 21.5262 46.5261 18.8647 43.5313C18.646 43.2865 18.4324 43.0417 18.2241 42.7917C15.8647 40.0781 13.922 36.9531 12.422 33.3958L10.1564 35.724ZM31.1929 52.0208C30.5314 52.7344 29.8283 53.5469 29.0939 54.3958C25.2397 58.8542 20.646 64.1667 15.4064 62.6615C12.6772 61.875 8.31785 58.5365 4.97931 54.8125C2.06265 51.5573 -0.145688 47.9167 0.00535395 45.2136C0.0574373 44.3073 0.270979 43.4479 0.619937 42.6354C0.958479 41.849 1.42202 41.099 1.99494 40.3854C2.02098 40.3542 2.04702 40.3229 2.07827 40.2917L11.6772 30.3646C11.5626 27.9375 11.6668 25.625 11.9689 23.4323C12.3126 20.9583 12.9168 18.625 13.7606 16.4219C14.5887 14.2761 15.8179 11.849 17.3699 9.59376C18.7085 7.65626 20.2918 5.82293 22.0783 4.3698C23.547 3.1771 25.9845 1.84897 28.3856 1.32814C30.3595 0.895846 32.3543 0.994804 33.9116 2.07814H33.9168C35.3647 3.08335 35.7137 4.66147 35.4272 6.47397C36.9481 5.34897 38.4949 4.5573 40.0679 4.09897C43.3647 3.13022 46.7033 3.59897 50.0314 5.41668C51.0158 5.95314 51.9897 6.59897 52.9429 7.35418C55.1043 9.0573 57.8543 11.8542 60.0418 14.8594C61.8335 17.3229 63.2658 19.9583 63.7345 22.3125C64.2397 24.8594 64.021 27.474 63.0418 30.1563C62.0939 32.7604 60.4272 35.4219 58.0158 38.1406C58.0054 38.1563 57.9897 38.1667 57.9793 38.1823C56.8908 39.3073 55.7866 40.3542 54.6616 41.3333C53.5418 42.3073 52.3699 43.2448 51.146 44.1511C48.7241 45.9427 46.4897 47.4323 44.1147 48.6302C41.7137 49.8438 39.172 50.7552 36.1616 51.375C35.2085 51.5729 34.271 51.724 33.3647 51.8386C32.6564 51.9167 31.9324 51.9792 31.1929 52.0208Z" fill="white"/>
</g>
<defs>
<clipPath id="clip0_1543_412">
<rect width="64" height="64" fill="white"/>
</clipPath>
</defs>
</svg>
